<?xml version="1.0" encoding="UTF-8"?>
<svg xmlns="http://www.w3.org/2000/svg" xmlns:xlink="http://www.w3.org/1999/xlink" width="40px" height="40px" viewBox="0 0 40 40" version="1.1">
<g id="surface1">
<path style=" stroke:none;fill-rule:nonzero;fill:rgb(221,25,22);fill-opacity:1;" d="M 10.53125 36.664062 C 9.238281 36.796875 8.035156 36.800781 6.808594 36.734375 C 3.984375 36.578125 2.273438 33.894531 2.53125 31.09375 C 2.753906 28.65625 3.71875 26.445312 4.605469 24.210938 C 5.898438 20.949219 6.554688 17.457031 8.207031 14.335938 C 9.335938 12.207031 10.796875 10.347656 12.9375 9.125 C 15.996094 7.371094 18.710938 7.746094 21.363281 10.113281 C 23.21875 11.769531 24.675781 13.761719 26.277344 15.632812 C 27.6875 17.277344 29.167969 18.867188 30.308594 20.734375 C 31.886719 23.316406 32.332031 25.960938 30.695312 28.640625 C 29.578125 30.472656 27.824219 31.597656 25.867188 32.441406 C 24.160156 33.179688 22.371094 33.542969 20.570312 33.945312 C 17.355469 34.664062 14.304688 35.996094 11.050781 36.589844 C 10.902344 36.617188 10.757812 36.636719 10.53125 36.664062 Z M 10.53125 36.664062 "/>
<path style=" stroke:none;fill-rule:nonzero;fill:rgb(7,160,14);fill-opacity:1;" d="M 25.8125 12.582031 C 23.148438 9.796875 22.554688 5.984375 24.429688 2.679688 C 25.710938 5.019531 27.9375 6.703125 27.574219 9.953125 C 29.160156 6.898438 32.183594 7.171875 34.695312 6.25 C 34.09375 8.773438 33.542969 11.269531 31.75 13.410156 C 34.027344 13.015625 36.082031 13.804688 38.320312 14.1875 C 37.902344 15.027344 37.1875 15.5 36.464844 15.90625 C 35.726562 16.320312 34.917969 16.601562 34.09375 16.960938 C 35.839844 18.160156 37.175781 19.675781 38.449219 21.515625 C 34.652344 20.769531 31.453125 19.464844 29.261719 16.382812 C 28.277344 14.996094 26.949219 13.917969 25.8125 12.582031 Z M 25.8125 12.582031 "/>
</g>
</svg>
