<svg xmlns="http://www.w3.org/2000/svg" xmlns:xlink="http://www.w3.org/1999/xlink" width="259px" height="150px" viewBox="0 0 768 444" version="1.1">
    <g id="surface1">
    <path style=" stroke:none;fill-rule:nonzero;fill:rgb(45,57,76);fill-opacity:1;" d="M 55.289062 234.527344 C 66.347656 225.113281 78.808594 218.519531 91.6875 212.671875 C 119.316406 200.128906 148.285156 191.605469 177.65625 184.339844 C 209.074219 176.570312 240.882812 171.042969 272.972656 166.792969 C 307.109375 162.269531 341.324219 160.109375 375.714844 161.234375 C 395.207031 161.867188 414.609375 163.640625 433.125 170.566406 C 435.941406 171.621094 438.671875 172.878906 441.164062 174.558594 C 448.621094 179.582031 453.425781 185.972656 451.300781 196.296875 C 454.304688 194.964844 456.78125 193.972656 459.171875 192.796875 C 488.59375 178.324219 519.554688 168.492188 551.554688 161.589844 C 580.085938 155.4375 608.875 152.019531 638.046875 151.066406 C 658.425781 150.398438 678.75 150.511719 699.0625 152.121094 C 704.648438 152.5625 710.25 153.316406 715.261719 156.265625 C 722.691406 160.640625 725.542969 167.273438 724.589844 175.585938 C 723.714844 183.253906 719.257812 188.363281 712.191406 191.132812 C 705.703125 193.679688 698.816406 194.246094 691.941406 194.316406 C 667.832031 194.554688 643.738281 193.246094 619.632812 193.207031 C 599.414062 193.175781 579.203125 193.632812 559.015625 195.160156 C 524.753906 197.75 491.5625 204.6875 460.050781 218.703125 C 452.855469 221.902344 445.894531 225.578125 439.238281 229.8125 C 437.207031 231.105469 435.265625 232.515625 434.019531 234.574219 C 425.929688 247.921875 413.617188 256.300781 400.105469 263.109375 C 374.113281 276.203125 346.71875 285.527344 318.558594 292.65625 C 291.792969 299.433594 264.726562 304.574219 237.289062 307.90625 C 208.585938 311.390625 179.816406 312.9375 150.941406 311.875 C 134.597656 311.273438 118.25 310.199219 102.308594 306.074219 C 90.660156 303.058594 81.09375 296.179688 71.707031 289.105469 C 64.328125 283.542969 57.230469 277.621094 50.707031 271.03125 C 41.359375 261.585938 40.835938 250.378906 49.53125 240.261719 C 51.234375 238.28125 53.242188 236.5625 55.289062 234.527344 M 84.847656 228.519531 C 78.328125 231.96875 71.96875 235.679688 66.03125 240.078125 C 62.398438 242.769531 59.03125 245.75 56.597656 249.613281 C 53.519531 254.5 54.292969 258.867188 58.761719 262.445312 C 63.628906 266.339844 69.253906 268.636719 75.160156 270.414062 C 95.484375 276.527344 116.472656 277.316406 137.429688 277.898438 C 164.183594 278.644531 190.820312 276.613281 217.394531 273.578125 C 244.453125 270.488281 271.210938 265.691406 297.734375 259.632812 C 322.816406 253.902344 347.527344 246.839844 371.636719 237.730469 C 392.265625 229.933594 412.160156 220.761719 430.359375 208.15625 C 434.683594 205.160156 437.9375 201.289062 440.378906 196.726562 C 442.335938 193.070312 441.792969 190.226562 438.8125 187.214844 C 436.3125 184.691406 433.265625 182.996094 430.03125 181.597656 C 417.925781 176.375 405.046875 174.703125 392.105469 173.519531 C 368.933594 171.402344 345.742188 171.707031 322.53125 173.25 C 298.722656 174.835938 275.050781 177.550781 251.480469 181.175781 C 215.175781 186.753906 179.355469 194.539062 144.175781 205.179688 C 123.941406 211.300781 104.125 218.453125 84.847656 228.519531 M 439.546875 214.867188 C 438.492188 215.53125 437.433594 216.199219 436.378906 216.863281 C 439.769531 215.976562 442.832031 214.609375 445.851562 213.160156 C 463.582031 204.652344 481.980469 198.097656 501.03125 193.152344 C 532.351562 185.019531 564.339844 183.074219 596.441406 182.179688 C 626.796875 181.335938 657.152344 182.992188 687.515625 182.863281 C 692.765625 182.839844 698 182.777344 703.214844 182.0625 C 709.40625 181.214844 713.675781 177.46875 713.71875 172.703125 C 713.761719 168.027344 710.390625 165.015625 703.828125 163.878906 C 703.457031 163.816406 703.082031 163.792969 702.710938 163.75 C 694.648438 162.792969 686.566406 162.308594 678.441406 162.128906 C 646.6875 161.433594 614.996094 162.011719 583.53125 166.863281 C 550.484375 171.957031 518.140625 179.734375 487.152344 192.570312 C 471.109375 199.21875 455.183594 206.117188 439.546875 214.867188 Z M 439.546875 214.867188 "/>
    <path style=" stroke:none;fill-rule:nonzero;fill:rgb(221,25,22);fill-opacity:1;" d="M 352.789062 138.382812 C 345.367188 140.367188 338.167969 141.648438 330.761719 141.992188 C 313.097656 142.804688 306.101562 130.710938 309.121094 115.195312 C 310.199219 109.664062 311.949219 104.328125 314.136719 99.148438 C 318.554688 88.664062 321.546875 77.695312 325.300781 66.988281 C 329.898438 53.878906 336.5 42.136719 349.046875 34.921875 C 360.210938 28.503906 370.699219 29.796875 380.390625 38.4375 C 384.6875 42.265625 388.738281 46.285156 392.265625 50.855469 C 399.8125 60.625 408.679688 69.320312 415.4375 79.746094 C 427.066406 97.6875 419.632812 114.714844 401.980469 123.398438 C 395.132812 126.769531 388.019531 129.292969 380.367188 130.386719 C 370.933594 131.738281 362.265625 135.953125 352.789062 138.382812 Z M 352.789062 138.382812 "/>
    <path style=" stroke:none;fill-rule:nonzero;fill:rgb(45,57,76);fill-opacity:1;" d="M 509.238281 360.296875 C 513.390625 371.925781 509.070312 380.183594 499.199219 386.644531 C 504.109375 391.335938 508.824219 395.84375 513.917969 400.707031 C 514.574219 398.933594 515.445312 397.398438 515.683594 395.769531 C 516.238281 391.992188 518.296875 390.941406 521.914062 391.214844 C 531.394531 391.925781 530.171875 392.46875 527.878906 399.859375 C 526.800781 403.328125 524.566406 406.238281 522.445312 409.40625 C 527.492188 415.550781 534.847656 419.238281 540.160156 426.15625 C 535.582031 427.015625 531.988281 427.832031 528.347656 428.320312 C 526.144531 428.617188 524.816406 426.632812 523.226562 425.515625 C 520.28125 423.441406 517.613281 419.65625 514.589844 419.398438 C 511.832031 419.164062 508.835938 422.796875 505.8125 424.488281 C 495.769531 430.105469 485.488281 430.984375 475.082031 425.507812 C 463.089844 419.195312 460.492188 403.585938 469.691406 393.601562 C 472.925781 390.09375 476.789062 387.34375 481.097656 384.355469 C 475.847656 377.449219 471.597656 370.253906 474.710938 361.292969 C 476.171875 357.082031 479.3125 354.300781 483.183594 352.203125 C 491.8125 347.519531 504.53125 350.824219 509.238281 360.296875 M 481.105469 414.800781 C 488.808594 419.300781 499.503906 417.191406 505.421875 409.699219 C 501.171875 405.296875 496.714844 400.988281 492.640625 396.339844 C 490.160156 393.511719 487.949219 392.996094 485.09375 395.488281 C 484.253906 396.226562 483.234375 396.761719 482.40625 397.507812 C 476.503906 402.804688 475.847656 409.296875 481.105469 414.800781 M 486.988281 364.519531 C 485.199219 368.117188 486.316406 371.253906 488.476562 374.261719 C 491.425781 378.359375 492.84375 378.464844 496.324219 374.761719 C 499.644531 371.230469 500.066406 366.453125 497.300781 363.664062 C 494.632812 360.972656 490.847656 361.113281 486.988281 364.519531 Z M 486.988281 364.519531 "/>
    <path style=" stroke:none;fill-rule:nonzero;fill:rgb(45,57,76);fill-opacity:1;" d="M 725.492188 392.839844 C 723.425781 412.089844 708.71875 426.132812 689.105469 427.929688 C 670.890625 429.597656 652.546875 417.53125 647.765625 399.984375 C 639.765625 370.617188 663.539062 346.78125 691.34375 350.398438 C 711.367188 353.007812 727.28125 370.546875 725.492188 392.839844 M 668.3125 369.425781 C 655.382812 382.558594 657.144531 401.914062 672.117188 411.207031 C 681.601562 417.097656 693.441406 416.40625 702.632812 409.429688 C 710.832031 403.203125 714.339844 391.785156 711.207031 381.5 C 705.664062 363.300781 684.15625 357.007812 668.3125 369.425781 Z M 668.3125 369.425781 "/>
    <path style=" stroke:none;fill-rule:nonzero;fill:rgb(45,57,76);fill-opacity:1;" d="M 123.742188 351.519531 C 131.90625 351.121094 139.390625 352.160156 145.828125 356.957031 C 158.386719 366.316406 159.070312 385.710938 147.015625 396.671875 C 144.070312 399.351562 143.734375 400.90625 146.175781 404.140625 C 150.910156 410.40625 155.0625 417.109375 159.445312 423.640625 C 159.914062 424.335938 160.6875 424.929688 160.148438 426.707031 C 156.015625 426.707031 151.609375 426.792969 147.210938 426.65625 C 145.890625 426.613281 145.238281 425.242188 144.53125 424.214844 C 140.503906 418.351562 136.394531 412.542969 132.492188 406.601562 C 131.015625 404.359375 129.3125 403.339844 126.613281 403.605469 C 124.386719 403.828125 122.113281 403.792969 119.875 403.636719 C 117.175781 403.453125 116.425781 404.675781 116.484375 407.195312 C 116.609375 412.4375 116.40625 417.683594 116.542969 422.925781 C 116.613281 425.796875 115.625 426.941406 112.644531 426.871094 C 102.1875 426.617188 103.429688 428.316406 103.484375 417.769531 C 103.566406 400.542969 103.8125 383.320312 103.96875 366.09375 C 104.003906 362.359375 104.03125 358.625 103.945312 354.890625 C 103.894531 352.523438 104.824219 351.535156 107.261719 351.570312 C 112.628906 351.652344 118 351.546875 123.742188 351.519531 M 136.820312 366.695312 C 130.636719 363.316406 124.027344 364.699219 116.527344 364.53125 C 116.527344 372.648438 116.546875 380.351562 116.511719 388.050781 C 116.503906 389.796875 117.261719 390.589844 118.976562 390.535156 C 123.328125 390.386719 127.6875 390.816406 132.035156 390.003906 C 137.480469 388.992188 140.847656 385.597656 142.007812 380.554688 C 143.210938 375.332031 142.242188 370.332031 136.820312 366.695312 Z M 136.820312 366.695312 "/>
    <path style=" stroke:none;fill-rule:nonzero;fill:rgb(45,57,76);fill-opacity:1;" d="M 344.25 394.679688 C 339.753906 394.648438 335.628906 394.726562 331.511719 394.5625 C 328.628906 394.445312 327.738281 395.695312 328.0625 398.398438 C 328.578125 402.742188 328.863281 407.105469 328.160156 411.464844 C 327.730469 414.105469 329.144531 414.636719 331.425781 414.617188 C 341.167969 414.527344 350.914062 414.6875 360.648438 414.441406 C 364.320312 414.347656 365.726562 415.328125 366.476562 419.195312 C 368.285156 428.523438 366.941406 426.925781 359.605469 426.960938 C 346.117188 427.019531 332.625 426.914062 319.136719 427.046875 C 316.058594 427.078125 314.902344 426.023438 314.910156 422.96875 C 314.96875 400.734375 314.984375 378.503906 314.898438 356.269531 C 314.882812 352.839844 315.882812 351.441406 319.601562 351.488281 C 333.460938 351.667969 347.328125 351.605469 361.191406 351.453125 C 364.464844 351.417969 365.554688 352.539062 365.539062 355.789062 C 365.5 363.910156 365.625 363.921875 357.320312 363.90625 C 349.203125 363.890625 341.082031 363.960938 332.964844 363.757812 C 329.605469 363.671875 328.148438 364.742188 328.386719 368.238281 C 328.613281 371.59375 328.738281 375.003906 328.394531 378.339844 C 328.027344 381.902344 329.59375 382.515625 332.660156 382.4375 C 339.777344 382.257812 346.902344 382.453125 354.015625 382.273438 C 357.503906 382.183594 358.914062 383.304688 358.828125 387.007812 C 358.65625 394.691406 358.832031 394.695312 350.996094 394.6875 C 348.871094 394.683594 346.746094 394.683594 344.25 394.679688 Z M 344.25 394.679688 "/>
    <path style=" stroke:none;fill-rule:nonzero;fill:rgb(45,57,76);fill-opacity:1;" d="M 189.375 395.820312 C 189.199219 400.988281 189.242188 405.859375 189.066406 410.722656 C 188.957031 413.71875 190.328125 414.644531 193.125 414.613281 C 203.117188 414.507812 213.113281 414.617188 223.105469 414.453125 C 226.265625 414.398438 227.152344 415.398438 226.914062 418.589844 C 226.292969 426.894531 226.449219 426.921875 218.183594 426.933594 C 205.5625 426.953125 192.945312 426.851562 180.328125 427 C 176.953125 427.039062 175.894531 426.097656 175.886719 422.542969 C 175.84375 401.5625 176.457031 380.574219 175.59375 359.59375 C 175.265625 351.617188 175.410156 351.574219 183.394531 351.5625 C 196.386719 351.546875 209.378906 351.65625 222.371094 351.554688 C 225.652344 351.527344 226.800781 352.761719 226.691406 355.972656 C 226.371094 365.261719 227.476562 363.992188 217.847656 364.304688 C 209.496094 364.570312 201.125 364.179688 192.761719 363.964844 C 190.265625 363.898438 189.0625 364.636719 189.164062 367.339844 C 189.3125 371.207031 189.320312 375.085938 189.167969 378.953125 C 189.058594 381.671875 190.292969 382.371094 192.769531 382.34375 C 200.636719 382.25 208.511719 382.441406 216.378906 382.25 C 219.609375 382.167969 220.769531 383.167969 220.800781 386.476562 C 220.867188 394.652344 221.011719 394.664062 212.886719 394.6875 C 206.515625 394.707031 200.144531 394.660156 193.773438 394.703125 C 192.324219 394.710938 190.738281 394.28125 189.375 395.820312 Z M 189.375 395.820312 "/>
    <path style=" stroke:none;fill-rule:nonzero;fill:rgb(45,57,76);fill-opacity:1;" d="M 255.027344 351.648438 C 263.117188 352.019531 270.90625 350.882812 278.5625 352.582031 C 291.449219 355.4375 299.363281 364.773438 298.859375 378.285156 C 298.386719 391.011719 290.53125 400.710938 277.507812 403.671875 C 273.1875 404.652344 268.8125 404.410156 264.445312 404.417969 C 258.832031 404.433594 258.871094 404.417969 258.757812 409.859375 C 258.660156 414.347656 258.507812 418.835938 258.285156 423.320312 C 258.125 426.519531 258.054688 426.402344 248.84375 426.3125 C 246.183594 426.285156 245.734375 425.179688 245.742188 422.941406 C 245.800781 407.199219 245.78125 391.457031 245.800781 375.714844 C 245.808594 369.589844 245.875 363.46875 245.882812 357.347656 C 245.890625 352.09375 246.066406 351.882812 251.285156 351.679688 C 252.40625 351.636719 253.535156 351.652344 255.027344 351.648438 M 282.875 385.894531 C 287.210938 377.917969 285.582031 370.066406 278.425781 366.085938 C 272.785156 362.945312 266.480469 364.382812 260.433594 364.277344 C 259.066406 364.253906 258.941406 365.757812 258.9375 366.910156 C 258.921875 374.035156 258.96875 381.160156 258.894531 388.28125 C 258.875 390.566406 259.875 391.394531 262.058594 391.359375 C 265.433594 391.300781 268.808594 391.417969 272.179688 391.394531 C 276.425781 391.363281 279.972656 389.835938 282.875 385.894531 Z M 282.875 385.894531 "/>
    <path style=" stroke:none;fill-rule:nonzero;fill:rgb(45,57,76);fill-opacity:1;" d="M 63.398438 414.582031 C 68.921875 413.757812 73.609375 411.851562 77.398438 408.117188 C 78.769531 406.761719 79.886719 406.730469 81.144531 408.210938 C 82.035156 409.253906 83.054688 410.1875 84.027344 411.160156 C 88.230469 415.347656 88.210938 415.789062 83.628906 419.347656 C 68.84375 430.828125 49.742188 431.023438 35.441406 419.84375 C 21.214844 408.726562 16.441406 389.363281 23.785156 372.566406 C 33.144531 351.171875 62.253906 342.96875 81.339844 356.351562 C 88.429688 361.324219 88.042969 366.195312 80.269531 370.503906 C 78.726562 371.359375 77.953125 370.21875 77.011719 369.527344 C 72.523438 366.226562 67.816406 363.539062 62.054688 363.183594 C 46.496094 362.214844 34.148438 373.117188 33.859375 388.148438 C 33.558594 403.839844 44.914062 415.035156 60.816406 414.71875 C 61.566406 414.703125 62.3125 414.648438 63.398438 414.582031 Z M 63.398438 414.582031 "/>
    <path style=" stroke:none;fill-rule:nonzero;fill:rgb(45,57,76);fill-opacity:1;" d="M 574.753906 365.558594 C 587.132812 350.136719 606.097656 345.714844 623.730469 353.957031 C 626.945312 355.460938 629.570312 357.769531 632.214844 360.058594 C 633.847656 361.46875 633.988281 362.941406 632.40625 364.511719 C 631.96875 364.949219 631.636719 365.492188 631.230469 365.964844 C 626.304688 371.703125 626.40625 371.554688 620.292969 367.441406 C 612.15625 361.96875 603.414062 361.460938 594.699219 365.789062 C 586.089844 370.070312 581.347656 377.410156 580.707031 386.945312 C 579.972656 397.984375 584.097656 406.953125 594.277344 411.984375 C 604.550781 417.0625 614.4375 415.660156 623.183594 408.125 C 625.023438 406.542969 626.167969 406.386719 627.769531 408.253906 C 629.789062 410.605469 632.011719 412.777344 634.105469 414.980469 C 624.425781 429.097656 599.429688 432.066406 583.753906 421.164062 C 565.722656 408.628906 561.703125 384.300781 574.753906 365.558594 Z M 574.753906 365.558594 "/>
    <path style=" stroke:none;fill-rule:nonzero;fill:rgb(45,57,76);fill-opacity:1;" d="M 419.625 424.230469 C 407.535156 431.515625 387.726562 427.519531 377.886719 415.511719 C 379.710938 412.878906 382.183594 410.785156 384.414062 408.46875 C 386.039062 406.78125 387.292969 406.734375 389.097656 408.441406 C 392.84375 411.980469 396.972656 414.898438 402.347656 415.664062 C 405.0625 416.050781 407.566406 415.710938 410.0625 414.847656 C 413.824219 413.550781 416.144531 410.855469 416.652344 406.953125 C 417.171875 402.960938 415.273438 399.929688 411.949219 397.84375 C 407.042969 394.769531 401.292969 393.605469 396.15625 391.035156 C 388.136719 387.023438 381.960938 381.457031 381.585938 371.820312 C 381.179688 361.394531 389.035156 352.921875 400.859375 351.035156 C 408.789062 349.769531 416.242188 351.390625 422.894531 356.171875 C 425.382812 357.957031 426.089844 359.855469 424.015625 362.382812 C 423.621094 362.859375 423.324219 363.421875 422.988281 363.945312 C 420.019531 368.546875 419.984375 368.609375 415.257812 365.902344 C 411.566406 363.789062 407.675781 362.699219 403.429688 363.167969 C 399.636719 363.585938 396.777344 365.441406 395.6875 369.230469 C 394.628906 372.902344 396.570312 375.460938 399.363281 377.523438 C 403.644531 380.691406 408.792969 382.054688 413.546875 384.226562 C 418.992188 386.710938 423.8125 389.84375 426.9375 395.164062 C 433.132812 405.695312 430.28125 417.46875 419.625 424.230469 Z M 419.625 424.230469 "/>
    <path style=" stroke:none;fill-rule:nonzero;fill:rgb(7,160,14);fill-opacity:1;" d="M 430.351562 33.460938 C 429.097656 36.773438 427.996094 39.828125 426.78125 42.839844 C 425.574219 45.828125 423.902344 48.5625 420.9375 51.644531 C 429.984375 50.726562 437.628906 52.558594 445.753906 55.132812 C 442.074219 61.230469 436.1875 62.960938 430.304688 65.226562 C 436.3125 70.234375 441.960938 75.222656 446.230469 82.433594 C 434.222656 80.390625 423.460938 77.242188 415.757812 68.054688 C 408.929688 59.914062 401.539062 52.304688 394.4375 44.425781 C 389.25 38.667969 387.539062 32.167969 389.035156 24.6875 C 389.910156 20.308594 390.796875 15.929688 391.679688 11.542969 C 396.695312 12.871094 404.667969 27.695312 405.519531 37.480469 C 411.519531 26.601562 422.863281 27.609375 432.460938 23.585938 C 432.777344 27.476562 431.03125 30.21875 430.351562 33.460938 Z M 430.351562 33.460938 "/>
    <path style=" stroke:none;fill-rule:nonzero;fill:rgb(45,57,76);fill-opacity:1;" d="M 219.09375 334.921875 C 211.78125 339.59375 204.683594 344.191406 197.363281 348.410156 C 195.023438 349.757812 192.046875 352.488281 189.378906 349.183594 C 186.859375 346.0625 189.6875 343.617188 191.429688 341.328125 C 194.453125 337.363281 197.859375 333.695312 201.738281 330.570312 C 207.398438 326.007812 216.878906 328.34375 219.09375 334.921875 Z M 219.09375 334.921875 "/>
    <path style=" stroke:none;fill-rule:nonzero;fill:rgb(45,57,76);fill-opacity:1;" d="M 751.722656 419.925781 C 751.238281 424.253906 748.679688 426.398438 745.039062 427.421875 C 741.96875 428.285156 739.320312 427.285156 737.265625 424.957031 C 735.027344 422.414062 734.246094 419.453125 735.804688 416.28125 C 737.375 413.085938 740.03125 411.433594 743.65625 411.542969 C 747.070312 411.644531 749.714844 413.007812 750.960938 416.367188 C 751.34375 417.402344 751.480469 418.53125 751.722656 419.925781 Z M 751.722656 419.925781 "/>
    </g>
</svg>